<svg xmlns="http://www.w3.org/2000/svg" width="1345.044" height="1104.811" viewBox="0 0 1345.044 1104.811"><g transform="translate(-351.956 -524.189)"><circle cx="450" cy="450" r="450" transform="translate(564 729)" fill="#f2f2f2"/><g transform="translate(355 527.197)"><path d="M18.118,149.92c15.984-10.5,38.593-16.888,70.486-12.8,0,0,31.5-102.154,128.552-63.059,0,0,40.325-105.83,147.459-59.194l7.6,3.839C403.372,39.636,416.5,74.064,416.5,74.064c97.047-39.095,128.514,63.059,128.514,63.059,98.3-12.609,108.389,74.338,108.389,74.338H36.674C3.414,211.461-9.685,168.163,18.118,149.92Z" transform="translate(-3.001 -2.999)" fill="none" stroke="#217aff" stroke-linecap="round" stroke-linejoin="round" stroke-width="6"/><path d="M882.725,562.13c87.085-4.278,96.332,75.43,96.332,75.43H362.283c-33.248,0-46.347-43.3-18.556-61.553,16-10.489,38.606-16.875,70.486-12.8,0,0,31.517-102.154,128.564-63.046,0,0,11.794-30.94,39.559-51.993" transform="translate(79.918 110.364)" fill="none" stroke="#217aff" stroke-linecap="round" stroke-linejoin="round" stroke-width="6"/><path d="M563.86,324.51c15.984-10.5,38.593-16.888,70.486-12.8,0,0,31.5-102.154,128.552-63.046,0,0,40.337-105.842,147.459-59.207l7.6,3.839c31.153,20.928,44.277,55.368,44.277,55.368,97.047-39.107,128.552,63.046,128.552,63.046,98.314-12.547,108.389,74.351,108.389,74.351H830.812" transform="translate(139.822 41.461)" fill="none" stroke="#217aff" stroke-linecap="round" stroke-linejoin="round" stroke-width="6"/></g><g transform="translate(583.194 654.194)"><path d="M794.7,348.488a177.194,177.194,0,0,1,20.074,1.154V126.528a22.307,22.307,0,0,0-22.32-22.308H207.2a22.32,22.32,0,0,0-22.32,22.308V474.505a22.32,22.32,0,0,0,22.32,22.308H621.072A175.814,175.814,0,0,1,794.7,348.488Z" transform="translate(-184.88 -104.22)" fill="#ffa621"/><g transform="translate(6.763 11.367)"><path d="M197.64,113.28,485.081,336.131a18.531,18.531,0,0,0,23.023,0L795.557,113.28" transform="translate(-188.393 -113.28)" fill="none" stroke="#217aff" stroke-linecap="round" stroke-linejoin="round" stroke-width="6"/><line y1="175.551" x2="180.507" transform="translate(0 132.78)" fill="none" stroke="#217aff" stroke-linecap="round" stroke-linejoin="round" stroke-width="6"/><line x2="110.71" y2="107.674" transform="translate(437.484 132.78)" fill="none" stroke="#217aff" stroke-linecap="round" stroke-linejoin="round" stroke-width="6"/></g></g><circle cx="175.764" cy="175.764" r="175.764" transform="translate(1017.254 898.462)" fill="none" stroke="#217aff" stroke-linecap="round" stroke-linejoin="round" stroke-width="6"/></g></svg>